<?xml version="1.0" standalone="no"?>
<!DOCTYPE svg PUBLIC "-//W3C//DTD SVG 20010904//EN"
 "http://www.w3.org/TR/2001/REC-SVG-20010904/DTD/svg10.dtd">
<svg version="1.0" xmlns="http://www.w3.org/2000/svg"
 width="700.000000pt" height="700.000000pt" viewBox="0 0 700.000000 700.000000"
 preserveAspectRatio="xMidYMid meet">
<metadata>
Created by potrace 1.14, written by Peter Selinger 2001-2017
</metadata>
<g transform="translate(0.000000,700.000000) scale(0.100000,-0.100000)"
fill="#000000" stroke="none">
<path d="M0 5031 l0 -1968 51 8 c215 34 355 163 428 394 63 197 79 359 91 890
11 512 25 671 77 855 51 181 161 332 303 413 106 60 273 88 410 69 325 -47
529 -247 682 -672 100 -275 120 -328 141 -365 12 -22 30 -41 38 -43 23 -4 68
87 129 263 67 192 101 278 146 368 135 267 328 413 593 448 305 41 537 -120
664 -461 100 -270 146 -651 172 -1435 37 -1120 66 -1454 161 -1824 65 -253
150 -426 263 -534 127 -121 297 -154 488 -96 109 34 188 107 257 239 77 147
130 372 156 655 15 162 29 669 30 1060 1 804 75 1153 290 1365 110 108 239
160 400 160 281 0 507 -177 669 -521 73 -155 123 -301 216 -628 46 -163 98
-334 114 -381 l29 -85 1 1898 1 1897 -3500 0 -3500 0 0 -1969z"/>
<path d="M1174 5246 c-40 -18 -68 -55 -93 -121 -49 -129 -66 -325 -76 -840 -8
-453 -28 -653 -85 -871 -90 -340 -265 -569 -532 -693 -99 -47 -216 -79 -315
-88 l-73 -6 0 -1313 0 -1314 3500 0 3500 0 0 1314 0 1314 -50 12 c-65 16 -155
74 -208 136 -49 57 -129 207 -171 322 -16 44 -70 221 -120 393 -103 360 -157
521 -213 634 -91 183 -172 260 -271 258 -32 0 -58 -7 -76 -20 -57 -42 -114
-191 -141 -373 -22 -150 -32 -390 -40 -995 -9 -633 -15 -761 -45 -985 -41
-304 -134 -583 -248 -749 -47 -68 -166 -190 -227 -231 -175 -119 -400 -172
-627 -149 -219 23 -393 108 -549 270 -292 305 -439 835 -494 1779 -5 96 -17
380 -25 630 -32 978 -62 1265 -156 1524 -43 119 -95 176 -160 176 -180 0 -266
-106 -403 -495 -97 -273 -143 -362 -236 -456 -84 -85 -134 -113 -241 -135
-169 -35 -340 40 -454 201 -58 80 -98 170 -170 375 -105 301 -180 431 -280
482 -51 27 -176 35 -221 14z"/>
</g>
</svg>
