<?xml version="1.0" standalone="no"?>
<!DOCTYPE svg PUBLIC "-//W3C//DTD SVG 20010904//EN"
 "http://www.w3.org/TR/2001/REC-SVG-20010904/DTD/svg10.dtd">
<svg version="1.0" xmlns="http://www.w3.org/2000/svg"
 width="700.000000pt" height="700.000000pt" viewBox="0 0 700.000000 700.000000"
 preserveAspectRatio="xMidYMid meet">
<metadata>
Created by potrace 1.14, written by Peter Selinger 2001-2017
</metadata>
<g transform="translate(0.000000,700.000000) scale(0.100000,-0.100000)"
fill="#000000" stroke="none">
<path d="M0 3500 l0 -3500 3500 0 3500 0 0 3500 0 3500 -3500 0 -3500 0 0
-3500z m3603 2623 l337 -6 0 -434 0 -433 69 0 c187 0 482 -38 666 -86 182 -47
367 -126 491 -210 38 -25 72 -48 77 -50 4 -3 7 108 7 245 l0 251 -220 0 -220
0 0 360 0 360 875 0 875 0 0 -360 0 -360 -215 0 -215 0 -2 -2262 -3 -2263
-437 -3 -438 -2 0 1101 0 1101 -77 -69 c-305 -274 -635 -440 -1068 -538 -60
-14 -122 -25 -137 -25 l-28 0 0 -778 0 -779 -337 -6 c-511 -10 -657 -9 -675 6
-8 6 -375 444 -814 971 l-799 960 -3 -972 -2 -972 -435 0 -435 0 0 2625 0
2625 435 0 435 0 2 -967 3 -967 799 960 c439 527 806 965 814 972 18 14 164
15 675 5z"/>
<path d="M2475 4212 c-319 -383 -580 -703 -580 -712 0 -9 261 -329 580 -712
l580 -696 3 704 c1 387 1 1021 0 1408 l-3 704 -580 -696z"/>
<path d="M3940 3847 l0 -525 73 20 c222 62 423 172 577 314 146 136 239 326
211 432 -41 152 -328 264 -713 279 l-148 6 0 -526z"/>
</g>
</svg>
