<svg width="46.246" height="91.106" viewBox="0 0 12.236 24.105" xmlns="http://www.w3.org/2000/svg">
  <path d="M99.398 136.24a.335.335 0 0 0-.302.318c0 .022.004.044.009.066a.145.145 0 0 0-.019.073l.063 2.804c.001.042.02.08.052.107a.14.14 0 0 0 .006.028l.633 1.754v.002c0 .034.013.067.034.093l.433 1.198h-.573l-.724-1.858v.842l.416 1.016h-.416v.67h.538l-.538.69v.472l.905-1.162h.55l-.248.312-1.207 1.522v.466l1.434-1.808.584-.738a.145.145 0 0 0-.024-.203.145.145 0 0 0-.052-.025.334.334 0 0 0-.086-.115v-3.647l.485.41a.094.094 0 0 0-.003.024l-.002.013v3.907a.145.145 0 0 0-.153.048l-2.183 2.773v.469l2.336-2.968v.611l-2.336 3.01v.472l2.508-3.23a.144.144 0 0 0 .117-.143v-4.746l.531.449v4.654l-2.384 3.277-.772-.003v1.401l.245-.36-.245 1.015v1.343c.138.033.277.062.42.081a4.043 4.043 0 0 0 2.363-.413.144.144 0 0 0 .065.087l.949.584a.363.363 0 0 0 .012.006l-.485.897a.145.145 0 0 0-.053-.089l-1.074-.859a.145.145 0 0 0-.107-.03v-.001h-.004a.144.144 0 0 0-.074-.014l-2.012.172v.289l2.035-.174 1.057.844c.042.033.147.02.147.02l-1.47 2.717-1.45-.839.498-.693 1.173.646a.145.145 0 0 0 .139-.254l-1.142-.627.493-.686 1.116.604c.07.038.157.012.195-.058a.145.145 0 0 0-.058-.195l-1.112-.603a.335.335 0 0 0-.571-.29l-1.05.105v.29l.82-.083-.673.936-.147-.124v1.475l.15-.21a.18.18 0 0 0 .024.017l1.458.843-.355.657a.145.145 0 0 0-.04-.039l-1.237-.796v.344l1.08.694a.145.145 0 0 0 .074.024l-.47.87-.684-.517v.361l.545.413-.354.655a.146.146 0 0 0-.029-.03l-.162-.13v.362c.02.013.044.022.069.024l-.069.127v.964a.334.334 0 0 0 .33-.17l.344-.635 2.265-.02.127.753a.335.335 0 0 0 .631.09l3.31-4.246.36.011a.337.337 0 0 0 .229-.08l.004.01-3.753 4.734h.368l3.63-4.578a.145.145 0 0 0 .03-.097c.068-.032.1-.11.075-.18l-.073-.2v-4.258l.486.41a.082.082 0 0 0-.003.023l-.002.013v4.264l-3.625 4.603h.368l3.257-4.136v.535c0 .023.006.045.017.066-.008.007-.016.014-.022.022l-2.728 3.513h.366l2.59-3.337a.144.144 0 0 0 .014-.153.144.144 0 0 0 .053-.111v-.917a.143.143 0 0 0 0-.092v-4.053l.53.448v5.078a.144.144 0 0 0-.08.05l-2.478 3.087h.373l2.186-2.725v.698c0 .015.003.03.008.045l-1.5 1.982h.362l1.405-1.857a.144.144 0 0 0 .013-.153v-5.961l.448.378a.16.16 0 0 0-.008.043v5.88c0 .01.002.02.004.03a.139.139 0 0 0-.033.03l-1.23 1.61h.363l1.095-1.435a.144.144 0 0 0 .026-.114.145.145 0 0 0 .064-.12v-5.687l.429.363-.015 5.422a.147.147 0 0 0-.082.06l-.98 1.511h.345l.864-1.333a.145.145 0 0 0 .112-.057l1.145.969a.145.145 0 0 0 .19-.002.318.318 0 0 0 .03-.005l.001-.983-.285.5a.27.27 0 0 0-.017.043l-1.027-.87a.03.03 0 0 0-.007-.004l.003-.822 1.29.986a.158.158 0 0 0 .043.016v-.361L110 157.48a.145.145 0 0 0-.086-.032l.002-.896 1.33.96v-.361l-.917-.65a.338.338 0 0 0 .064-.066l.424-.59.43.235v-.344l-.26-.111.26-.361v-1.475l-.801-.628.8-.101v-.29l-1.107.132-.573-.484 1.68-.165v-.29l-1.993.191-.672-.567 2.41-.08c.084.026.17.016.255.036V150.2l-.174.628a3.529 3.529 0 0 1-.546-.243l.72-1.04v-1.4l-.217-.002.217-.257v-.472l-.582.727-.521-.002 1.103-1.378v-.468l-1.47 1.867-.517-.002 1.987-2.506v-.465l-2.355 2.97-3.436-.017a.335.335 0 0 0-.336.333c0 .022.003.044.008.065a.145.145 0 0 0-.018.073l.063 2.805c0 .041.02.08.051.108a.14.14 0 0 0 .007.029l.633 1.75v.006c0 .035.013.068.036.094l.587 1.625a.353.353 0 0 0-.084-.014l-.499-.017-1.593-4.36a.136.136 0 0 0-.028-.045l.476-.88a.335.335 0 0 0-.589-.318l-.386.715a.144.144 0 0 0-.058-.05l-.3-.145c.308-.354.602-.768.874-1.245a.335.335 0 0 0-.034-.38l-.01-.011a.388.388 0 0 0-.03-.03l-.008-.007-.021-.015-.02-.013a.33.33 0 0 0-.071-.031h-.002a.353.353 0 0 0-.094-.015l-.954-.004.692-1.068a.145.145 0 0 0 .11-.056l1.146.968a.144.144 0 0 0 .191-.002.335.335 0 0 0 .333-.17l.344-.636 2.15-.019.08.473a.335.335 0 0 0 .628.091l2.516-3.23v-.47l-2.528 3.246-.078-.462 2.55-3.475h.057v-.67h-.48l-1.058-2.58.547-1.01.99 2.574v-.843l-.807-2.07.505-.933a.335.335 0 0 0-.588-.318l-.386.713a.144.144 0 0 0-.06-.051l-.3-.144c.309-.354.603-.768.875-1.245a.335.335 0 0 0-.125-.457l-.019-.008a.276.276 0 0 0-.07-.026.252.252 0 0 0-.066-.009h-.009l-7.796-.037zm-.018.647a.421.421 0 0 0 .05.008l2.812.013c.02.067.04.134.063.2l-2.8.07c-.017 0-.033 0-.05.002l-.058.002c-.004 0-.007 0-.011.002zm3.564.024 2.244.01-1.403 1.229a3.227 3.227 0 0 1-.84-1.24zm3.918.018 2.732.013a6.55 6.55 0 0 1-.622.798.144.144 0 0 0-.11.065zm-.632.205 1.557 1.548a3.604 3.604 0 0 1-.55.24zm.436.026 2.008.879a4.485 4.485 0 0 1-.629.49zm-1.225.132-.392 1.62a3.536 3.536 0 0 1-.546-.243zm.557.017.954 1.696a3.33 3.33 0 0 1-.764.095zm-.283.08.18 1.7a3.327 3.327 0 0 1-.567-.093zm-3.295.004c.061.138.132.272.21.402l-2.205.075-.489-.413zm2.508.139-.674.987a3.633 3.633 0 0 1-.249-.18zm-5.526.35.436.368.002 2.287-.36-.999a.144.144 0 0 0-.043-.058zm3.418.195c.147.202.314.39.499.564l-1.871.092-.693-.585zm6.585.168.378.182a.15.15 0 0 0 .064.014l-.704 1.3-.912-.559a5.369 5.369 0 0 0 1.174-.937zm-9.278.249.45.38v3.704l-.448-1.24zm3.516.42c.204.156.425.294.657.411l-2.069.07-.46-.39zm4.337.405a.144.144 0 0 0 .063.087l.95.586.012.006-.485.896a.144.144 0 0 0-.053-.088l-1.074-.862a.144.144 0 0 0-.108-.03v.001a.144.144 0 0 0-.078-.016l-3.974.34-.672-.566 2.407-.08a4.04 4.04 0 0 0 3.013-.274zm-.747.87 1.054.842c.042.033.148.02.148.02l-1.064 1.967-.046.055.004.024-.364.672-1.45-.84.497-.692 1.174.645c.07.038.157.013.196-.057a.145.145 0 0 0-.057-.195l-1.142-.63.491-.683 1.117.604c.07.038.158.012.196-.058a.145.145 0 0 0-.059-.198l-1.112-.6a.335.335 0 0 0-.568-.293l-2.13.215-.572-.483 3.685-.315h.002zm2.296.244.923 2.243-.759.002-.57-1.494zm-7.073.027.446.377a.145.145 0 0 0-.007.041v5.881c0 .01.002.02.004.028a.151.151 0 0 0-.036.032l-1.021 1.338-.597-.003 1.196-1.581a.145.145 0 0 0 .013-.156l.001-.014zm.728.615.43.362-.016 5.42a.143.143 0 0 0-.082.06l-.805 1.244-.506-.002.89-1.164a.145.145 0 0 0 .026-.117.144.144 0 0 0 .063-.119zm2.833.01-.674.937-.918-.776zm2.925.434.443 1.16h-.491l-.208-.687zm-5.041.162.404.34v1.444l-.41.57zm.693.585.357.301-.357.496zm3.899.083.1.332h-.28zm-3.146.813a.155.155 0 0 0 .023.017l1.457.844-.354.656a.145.145 0 0 0-.04-.04l-1.47-.943zm5.48.181-2.257 3.089-.084-.503 2.046-2.585zm-.665.002-1.74 2.2-.078-.46 1.368-1.739zm-.816.002-1.067 1.356-.074-.442.681-.913zm-.821.002-.387.517-.087-.515zm-3.73.581 1.48.954a.144.144 0 0 0 .074.023l-.47.868-1.573-1.19a.336.336 0 0 0 .064-.064zm2.715.237.086.508v.003l.007.039-.395.008zm-3.617.468 1.848 1.397-.355.655a.147.147 0 0 0-.028-.03l-1.381-1.094a.145.145 0 0 0-.086-.03zm3.758.368.154.906-1.251.026.497-.919zm-5.485.357v1.043c0 .015.003.03.008.044l-1.29 1.705-.744-.003zm1.724.505 1.29 1.019a.144.144 0 0 0 .084.03l-.326.603a.385.385 0 0 0-.016.042l-1.027-.866a.03.03 0 0 0-.007-.005zm3.963.331.118.696-1.945.017.37-.682zm-2.451 2.607a.414.414 0 0 0 .05.007l2.812.013c.018.067.04.133.062.198l-2.8.073a.338.338 0 0 0-.05.001l-.058.002-.01.002zm-4.662.019 2.669.012s-.409.564-.62.795a.145.145 0 0 0-.113.067l-1.951-.855zm8.228.005 2.24.01-1.402 1.227a3.228 3.228 0 0 1-.838-1.237zm-8.924.197 1.56 1.549a3.609 3.609 0 0 1-.552.241zm.437.027 2.008.88a4.482 4.482 0 0 1-.629.49zm-.67.15.955 1.696a3.33 3.33 0 0 1-.764.095zm-.282.081.18 1.7a3.315 3.315 0 0 1-.568-.094zm8.911.026c.062.137.133.271.211.4l-2.206.076-.488-.412zm2.506.142-.67.984a3.623 3.623 0 0 1-.25-.18zm-5.523.346.437.368.002 2.286-.361-.998a.148.148 0 0 0-.041-.058zm3.417.196c.148.202.316.391.501.564l-1.874.091-.693-.585zm-5.62.145.378.18c.02.01.041.015.063.015l-.704 1.303-.912-.56a5.361 5.361 0 0 0 1.175-.938zm2.929.271.449.38v3.701l-.447-1.237zm3.516.422c.204.155.424.292.656.41l-2.07.069-.46-.388zm-5.56.088 1.485 4.068-.9-.03a.146.146 0 0 0 .002-.115l-1.17-2.845zm-.762 1.407 1.005 2.443-.004.004-.133.169-.44-.015-.12-.017-.081-.178-.633-1.655zm-.587 1.086.574 1.501-.374-.012-.166-.016-.041-.179-.248-.821zm7.167.184.404.34v1.445l-.41.57zm.693.585.357.301-.357.496zm-8.309.06.195.645-.534-.017zm-.276 1.298.085.003-.069.092zm.437.015.433.014-.712.905-.075-.444zm.791.026.436.014-1.363 1.723-.078-.459zm.796.025.779.026-2.281 2.992-.156-.922zm1.131.038.473.015-2.965 3.805-.076-.452zm-3.773.252.12.707-.51.015zm.163.965.158.94-1.366.029.497-.92.616-.012a.145.145 0 0 0 .095-.037zm.2 1.227c.002.02.007.038.016.055l.109.643-2.06.018.368-.681z" color="#fff" fill="#fff5" style="-inkscape-stroke:none;paint-order:fill markers stroke" transform="translate(-99.009 -136.24)"/>
</svg>
